<svg xmlns="http://www.w3.org/2000/svg" xmlns:xlink="http://www.w3.org/1999/xlink" width="2000" zoomAndPan="magnify" viewBox="0 0 1500 1499.999933" height="2000" preserveAspectRatio="xMidYMid meet" version="1.0"><path fill="#eeba2b" d="M 434.214844 617.554688 C 433.167969 618.160156 433.113281 624.722656 433.128906 747 C 433.140625 817.847656 433.039062 875.917969 432.90625 876.050781 C 432.777344 876.183594 432.304688 875.367188 431.863281 874.238281 C 431.417969 873.109375 430.394531 870.703125 429.589844 868.886719 C 428.785156 867.074219 428.125 865.425781 428.125 865.226562 C 428.125 865.027344 427.3125 863.136719 426.316406 861.027344 C 423.824219 855.738281 416.875 839.949219 416.875 839.578125 C 416.875 839.253906 413.863281 832.15625 411.785156 827.578125 C 411.105469 826.074219 409.980469 823.40625 409.285156 821.652344 C 408.59375 819.894531 407.347656 816.96875 406.515625 815.148438 C 405.679688 813.328125 405 811.710938 405 811.558594 C 405 811.40625 404.15625 809.4375 403.125 807.1875 C 402.09375 804.933594 401.25 802.96875 401.25 802.816406 C 401.25 802.664062 399.105469 797.398438 396.484375 791.113281 C 393.859375 784.828125 391.179688 778.28125 390.527344 776.5625 C 389.871094 774.84375 389.078125 772.875 388.757812 772.1875 C 388.441406 771.5 387.335938 769.019531 386.296875 766.671875 C 384.757812 763.191406 384.175781 762.445312 383.136719 762.609375 C 381.332031 762.894531 363.125 781.132812 363.125 782.652344 C 363.125 783.320312 363.53125 784.617188 364.03125 785.527344 C 364.53125 786.441406 366.386719 790.703125 368.152344 795 C 371.234375 802.496094 372.03125 804.390625 374.027344 808.921875 C 374.523438 810.050781 376.523438 815.042969 378.472656 820.015625 C 380.425781 824.992188 382.234375 829.34375 382.492188 829.6875 C 382.75 830.03125 383.316406 831.4375 383.75 832.8125 C 384.511719 835.234375 389.527344 846.902344 393.203125 854.804688 C 394.191406 856.929688 395 858.832031 395 859.03125 C 395 859.226562 395.589844 860.722656 396.3125 862.351562 C 397.035156 863.980469 397.84375 865.875 398.113281 866.5625 C 399.648438 870.476562 404.136719 880.519531 404.886719 881.71875 L 405.769531 883.125 L 478.441406 883.125 C 544.136719 883.125 551.152344 883.03125 551.496094 882.136719 C 552.25 880.171875 551.917969 856.542969 551.125 855.75 C 550.554688 855.179688 539.640625 855 505.8125 855 L 461.25 855 L 461.25 617.644531 L 459.84375 617.269531 C 457.429688 616.621094 435.390625 616.867188 434.214844 617.554688 M 322.324219 617.933594 C 322.160156 618.210938 320.980469 621.109375 319.695312 624.375 C 317.457031 630.070312 314.917969 636.292969 311.273438 645 C 310.339844 647.234375 308.648438 651.3125 307.519531 654.0625 C 306.390625 656.8125 304.972656 660.1875 304.367188 661.5625 C 303.765625 662.9375 301.945312 667.296875 300.324219 671.25 C 298.703125 675.203125 297.019531 679.28125 296.578125 680.3125 C 296.132812 681.34375 295.351562 683.171875 294.832031 684.375 C 293.910156 686.519531 289.238281 697.894531 286.746094 704.0625 C 285.964844 705.992188 285.148438 707.90625 284.304688 709.808594 C 283.65625 711.25 283.125 712.578125 283.125 712.761719 C 283.125 712.941406 282.453125 714.574219 281.628906 716.390625 C 280.808594 718.203125 279.695312 720.8125 279.160156 722.1875 C 277.949219 725.296875 274.6875 733.167969 273.511719 735.824219 C 273.023438 736.917969 271.636719 740.203125 270.425781 743.125 C 263.234375 760.46875 261.773438 763.945312 261.261719 764.890625 C 260.949219 765.464844 259.804688 768.328125 258.722656 771.25 C 257.636719 774.171875 256.542969 776.84375 256.289062 777.1875 C 256.035156 777.53125 255.175781 779.5 254.375 781.5625 C 253.574219 783.625 252.714844 785.59375 252.464844 785.9375 C 252.214844 786.28125 251.578125 787.828125 251.046875 789.375 C 250.515625 790.921875 248.769531 795.28125 247.167969 799.0625 C 245.566406 802.84375 243.601562 807.625 242.800781 809.6875 C 241.121094 814.03125 236.589844 825.074219 235.363281 827.8125 C 234.109375 830.621094 231.722656 836.28125 228.128906 845 C 226.359375 849.296875 224.226562 854.296875 223.390625 856.109375 C 222.558594 857.925781 221.875 859.765625 221.875 860.203125 C 221.875 860.640625 221.628906 861.265625 221.328125 861.59375 C 221.023438 861.917969 220.203125 863.734375 219.503906 865.625 C 218.804688 867.515625 217.09375 871.820312 215.710938 875.1875 C 214.324219 878.558594 213.34375 881.71875 213.535156 882.21875 C 213.828125 882.976562 216.464844 883.125 229.707031 883.125 L 245.53125 883.125 L 247.363281 881.578125 C 248.375 880.730469 249.425781 880.238281 249.703125 880.484375 C 249.976562 880.734375 250.023438 880.625 249.804688 880.242188 C 249.4375 879.601562 274.5 854.464844 330.363281 799.445312 C 342.367188 787.625 368.21875 762.035156 387.8125 742.578125 L 423.4375 707.207031 L 423.652344 697.824219 C 423.769531 692.660156 423.667969 684.414062 423.429688 679.496094 C 423.027344 671.316406 422.894531 670.570312 421.851562 670.746094 C 421.222656 670.851562 394.191406 697.234375 361.78125 729.375 C 314.300781 776.457031 269.296875 821.011719 267.800781 822.421875 C 267.558594 822.652344 271.296875 813.480469 272.484375 810.9375 C 272.804688 810.25 274.375 806.453125 275.96875 802.5 C 277.5625 798.546875 279.242188 794.46875 279.695312 793.4375 C 281.757812 788.746094 285.625 779.351562 285.625 779.03125 C 285.625 778.835938 287.207031 775.109375 289.140625 770.746094 C 291.074219 766.382812 293.03125 761.75 293.492188 760.457031 C 293.953125 759.160156 294.726562 757.191406 295.214844 756.082031 C 295.699219 754.96875 298.703125 747.734375 301.886719 740 C 308.757812 723.324219 309.09375 722.511719 310.335938 719.699219 C 310.863281 718.503906 311.710938 716.347656 312.21875 714.910156 C 312.726562 713.472656 313.359375 711.988281 313.628906 711.617188 C 313.894531 711.242188 314.496094 709.8125 314.957031 708.4375 C 315.421875 707.0625 316.480469 704.390625 317.3125 702.5 C 318.042969 700.835938 318.765625 699.171875 319.476562 697.5 C 319.835938 696.640625 320.515625 695.09375 320.988281 694.0625 C 321.457031 693.03125 322.164062 691.34375 322.558594 690.3125 L 323.277344 688.4375 L 324.414062 690.9375 C 326.726562 696.03125 328.050781 699.195312 330.042969 704.375 C 331.167969 707.296875 332.28125 709.96875 332.523438 710.3125 C 332.765625 710.65625 333.324219 712.058594 333.765625 713.425781 C 334.207031 714.792969 335.648438 718.230469 336.96875 721.066406 C 338.292969 723.902344 339.375 726.515625 339.375 726.875 C 339.375 728.03125 342.492188 732.5 343.296875 732.5 C 344.328125 732.5 363.75 713.03125 363.75 712 C 363.75 711.558594 363.195312 710.113281 362.515625 708.78125 C 361.839844 707.453125 360.886719 705.285156 360.398438 703.964844 C 359.914062 702.644531 358.480469 699.171875 357.21875 696.25 C 355.953125 693.328125 354.074219 688.828125 353.035156 686.25 C 351.996094 683.671875 350.773438 680.71875 350.316406 679.6875 C 348.382812 675.328125 345 667.429688 342.828125 662.1875 C 341.542969 659.09375 339.820312 655.050781 338.996094 653.207031 C 338.171875 651.359375 337.5 649.609375 337.5 649.316406 C 337.5 649.027344 336.820312 647.300781 335.992188 645.488281 C 335.164062 643.671875 333.304688 639.234375 331.863281 635.625 C 330.421875 632.015625 328.886719 628.21875 328.453125 627.1875 C 328.023438 626.15625 326.984375 623.625 326.148438 621.566406 C 324.773438 618.171875 323.105469 616.589844 322.324219 617.933594 M 1022.554688 684.820312 C 1019.167969 685.480469 1014.378906 689.5 1013.167969 692.695312 C 1012.226562 695.171875 1012.339844 700.902344 1013.371094 703.375 C 1014.980469 707.230469 1021.011719 710.625 1026.25 710.625 C 1035.714844 710.625 1041.464844 702.4375 1038.636719 692.988281 C 1037.929688 690.636719 1034.800781 687.441406 1031.5625 685.769531 C 1030.042969 684.984375 1024.628906 684.414062 1022.554688 684.820312 M 970.378906 690.363281 C 970.171875 690.90625 970 717.476562 970 749.402344 C 970 804.335938 970.058594 807.488281 971.109375 808.046875 C 972.460938 808.773438 990.003906 808.949219 991.089844 808.246094 C 991.695312 807.855469 991.890625 795.003906 991.984375 749.136719 C 992.089844 698.773438 991.980469 690.449219 991.210938 689.960938 C 990.714844 689.648438 985.914062 689.390625 980.535156 689.382812 C 972.191406 689.375 970.703125 689.519531 970.378906 690.363281 M 617.988281 695.664062 C 616.871094 696.316406 616.253906 697.546875 611.15625 709.347656 C 609.457031 713.28125 606.964844 718.820312 605.617188 721.648438 C 604.273438 724.480469 602.441406 728.570312 601.546875 730.742188 C 599.734375 735.140625 599.570312 735.511719 595 745.625 C 593.632812 748.640625 592.273438 751.664062 590.921875 754.6875 C 590.464844 755.71875 589.371094 758.1875 588.484375 760.175781 C 587.597656 762.160156 586.875 763.890625 586.875 764.019531 C 586.875 764.144531 585.734375 766.738281 584.34375 769.78125 C 583.308594 772.039062 582.28125 774.300781 581.253906 776.5625 C 580.945312 777.25 579.863281 779.640625 578.847656 781.875 C 577.347656 785.203125 575.859375 788.535156 574.386719 791.875 C 572.945312 795.140625 570.796875 799.898438 569.613281 802.449219 C 568.429688 805 567.679688 807.289062 567.949219 807.535156 C 568.21875 807.78125 573.109375 808.148438 578.816406 808.347656 C 586.476562 808.613281 589.460938 808.507812 590.210938 807.949219 C 591.132812 807.261719 596.890625 794.691406 600.078125 786.40625 L 601.339844 783.125 L 625.824219 783 C 653.679688 782.859375 655.675781 782.921875 656.632812 783.945312 C 657.015625 784.355469 658.242188 786.9375 659.355469 789.6875 C 660.472656 792.4375 662.019531 796.09375 662.789062 797.8125 C 663.5625 799.53125 664.523438 801.921875 664.921875 803.125 C 666.492188 807.839844 667.0625 808.136719 674.699219 808.234375 C 687.644531 808.402344 690.625 808.210938 690.625 807.207031 C 690.625 806.292969 689.515625 803.699219 685 794.0625 C 683.710938 791.3125 681.921875 787.445312 681.027344 785.46875 C 679.785156 782.753906 678.527344 780.046875 677.257812 777.34375 C 676.082031 774.851562 673.011719 768.171875 670.429688 762.5 C 667.847656 756.828125 664.558594 749.65625 663.121094 746.5625 C 661.683594 743.46875 659.289062 738.125 657.800781 734.6875 C 656.316406 731.25 654.410156 727.03125 653.570312 725.3125 C 652.511719 723.136719 651.480469 720.949219 650.46875 718.75 C 649.289062 716.167969 648.101562 713.589844 646.910156 711.011719 C 645.820312 708.648438 644.460938 705.558594 643.898438 704.144531 C 642.410156 700.421875 639.949219 696.179688 639.136719 695.9375 C 637.148438 695.34375 618.945312 695.105469 617.988281 695.664062 M 808.714844 703.480469 C 808.117188 704.199219 807.941406 706.769531 808.042969 713.167969 L 808.179688 721.875 L 801.625 721.875 C 797.75 721.875 794.910156 722.140625 794.671875 722.527344 C 794.238281 723.226562 794.226562 738.8125 794.660156 739.242188 C 794.800781 739.386719 797.398438 739.503906 800.429688 739.507812 C 803.457031 739.507812 806.359375 739.617188 806.875 739.75 C 807.679688 739.953125 807.835938 742.90625 807.972656 760.773438 C 808.191406 788.640625 808.261719 789.339844 811.625 796.703125 C 813.191406 800.132812 817.914062 804.335938 822.820312 806.664062 C 826.984375 808.644531 828.078125 808.882812 834.515625 809.199219 C 844.902344 809.710938 851.835938 808.207031 856.40625 804.453125 C 857.949219 803.1875 857.75 801.746094 855.09375 795 C 852.492188 788.378906 852.257812 788.238281 847.1875 790.21875 C 844.417969 791.300781 838.378906 791.558594 836.132812 790.691406 C 834.050781 789.886719 832.230469 788.132812 830.882812 785.625 C 829.804688 783.628906 829.683594 781.5625 829.480469 761.945312 C 829.308594 745.15625 829.433594 740.351562 830.046875 739.96875 C 830.480469 739.703125 835.359375 739.609375 840.886719 739.761719 C 847.023438 739.933594 851.300781 739.800781 851.875 739.417969 C 852.636719 738.910156 852.777344 737.429688 852.625 731.429688 C 852.523438 727.378906 852.292969 723.578125 852.117188 722.984375 C 851.835938 722.023438 850.589844 721.886719 840.742188 721.734375 L 829.6875 721.5625 L 829.535156 713.4375 C 829.304688 701.304688 830.445312 702.5 819.125 702.5 C 811.175781 702.5 809.386719 702.667969 808.714844 703.480469 M 1145.625 703.109375 C 1144.878906 703.582031 1144.644531 705.539062 1144.484375 712.710938 L 1144.285156 721.71875 L 1141.429688 722.109375 C 1139.859375 722.324219 1136.925781 722.5 1134.914062 722.5 L 1131.25 722.5 L 1131.25 730.925781 C 1131.25 740.785156 1130.78125 740.265625 1139.335938 739.898438 L 1144.375 739.679688 L 1144.375 761.050781 C 1144.375 777.632812 1144.585938 783.414062 1145.3125 786.867188 C 1146.53125 792.671875 1148.125 797.5 1148.820312 797.5 C 1149.125 797.5 1149.375 797.792969 1149.375 798.152344 C 1149.375 799.6875 1154.1875 804.152344 1158.21875 806.359375 C 1165.746094 810.472656 1181.492188 810.429688 1190.78125 806.269531 C 1193.175781 805.199219 1193.75 804.640625 1193.75 803.382812 C 1193.75 801.324219 1189.523438 789.230469 1188.605469 788.660156 C 1188.214844 788.417969 1186.746094 788.816406 1185.351562 789.542969 C 1183.34375 790.589844 1181.652344 790.875 1177.273438 790.902344 L 1171.738281 790.9375 L 1169.375 788.277344 C 1167.832031 786.539062 1166.902344 784.804688 1166.699219 783.277344 C 1166.527344 781.992188 1166.351562 771.726562 1166.304688 760.46875 L 1166.21875 740 L 1168.578125 739.910156 C 1169.875 739.863281 1173.796875 739.890625 1177.292969 739.976562 C 1180.789062 740.058594 1184.796875 739.933594 1186.199219 739.695312 L 1188.75 739.265625 L 1188.75 731.21875 C 1188.75 723.785156 1188.652344 723.117188 1187.488281 722.496094 C 1186.71875 722.082031 1182.410156 721.855469 1176.394531 721.910156 L 1166.5625 721.996094 L 1166.394531 713.03125 C 1166.253906 705.5 1166.0625 703.9375 1165.183594 703.28125 C 1163.921875 702.339844 1147.078125 702.191406 1145.625 703.109375 M 627.773438 721.40625 C 627.238281 723.125 618.664062 743.203125 616.175781 748.566406 C 615.183594 750.703125 614.375 752.617188 614.375 752.820312 C 614.375 753.027344 613.84375 754.375 613.191406 755.816406 C 611.125 760.382812 609.976562 763.308594 610.175781 763.507812 C 610.710938 764.046875 647.175781 763.789062 647.355469 763.246094 C 647.46875 762.910156 646.53125 760.425781 645.273438 757.722656 C 644.019531 755.023438 642.632812 751.828125 642.195312 750.625 C 641.757812 749.421875 640.519531 746.53125 639.449219 744.203125 C 638.375 741.875 637.5 739.832031 637.5 739.664062 C 637.5 739.496094 636.960938 738.167969 636.304688 736.710938 C 633.128906 729.675781 630.121094 722.671875 629.726562 721.40625 C 629.488281 720.632812 629.046875 720 628.75 720 C 628.453125 720 628.011719 720.632812 627.773438 721.40625 M 899.0625 721.53125 C 893.878906 722.535156 887.394531 724.902344 883.367188 727.261719 C 874.914062 732.214844 867.34375 742.300781 863.71875 753.4375 C 862.511719 757.136719 862.648438 773.140625 863.917969 777.304688 C 865.015625 780.890625 868.726562 788.5625 870.796875 791.527344 C 879.007812 803.261719 891.910156 809.417969 908.4375 809.480469 C 919.660156 809.519531 927.859375 807.21875 935.851562 801.777344 C 946.199219 794.734375 952.167969 784.570312 953.851562 771.136719 C 955.167969 760.65625 953.203125 750.992188 947.953125 742.074219 C 945.496094 737.894531 939.777344 731.296875 937.101562 729.554688 C 933.128906 726.964844 928.34375 724.660156 923.4375 722.976562 C 918.652344 721.335938 916.738281 721.019531 910.625 720.867188 C 906.382812 720.761719 901.644531 721.035156 899.0625 721.53125 M 1081.910156 721.335938 C 1073.558594 722.71875 1065.867188 726.113281 1061.113281 730.515625 C 1059.753906 731.769531 1057.613281 734.628906 1056.351562 736.867188 C 1054.070312 740.925781 1054.0625 740.957031 1054.0625 748.4375 C 1054.0625 755.527344 1054.160156 756.109375 1055.835938 759.0625 C 1060.9375 768.039062 1067.089844 770.984375 1087.8125 774.363281 C 1098.703125 776.140625 1104.566406 778.304688 1105.234375 780.792969 C 1106.902344 787.011719 1103.558594 790.160156 1094.050781 791.320312 C 1084.828125 792.449219 1075.8125 790.765625 1064.910156 785.878906 C 1062.28125 784.703125 1059.707031 783.902344 1059.1875 784.101562 C 1058.671875 784.300781 1056.9375 787.183594 1055.339844 790.511719 C 1053.742188 793.839844 1052.148438 797.082031 1051.796875 797.714844 C 1050.953125 799.25 1052.464844 800.910156 1056.5625 802.945312 C 1070.566406 809.898438 1093.71875 811.632812 1107.8125 806.78125 C 1115.972656 803.972656 1121.359375 799.597656 1124.503906 793.222656 C 1126.28125 789.625 1126.589844 788.296875 1126.773438 783.375 C 1127.214844 771.765625 1122.265625 764.742188 1110.609375 760.425781 C 1106.722656 758.988281 1104.828125 758.566406 1088.75 755.554688 C 1081.023438 754.109375 1079.144531 753.558594 1077.785156 752.339844 C 1077.308594 751.914062 1076.488281 751.199219 1075.960938 750.757812 C 1075.398438 750.285156 1075 748.9375 1075 747.523438 C 1075 742.816406 1079.085938 739.941406 1087.472656 738.753906 C 1092.242188 738.078125 1100.851562 738.875 1104.046875 740.285156 C 1107.261719 741.707031 1115.519531 745 1115.867188 745 C 1116.953125 745 1123.125 731.613281 1123.125 729.261719 C 1123.125 728.023438 1117.765625 725.21875 1111.875 723.371094 C 1104.070312 720.925781 1090.101562 719.976562 1081.910156 721.335938 M 698.542969 722.292969 C 697.816406 723.015625 698.070312 773.457031 698.820312 778.316406 C 700.203125 787.234375 704.238281 795.664062 709.210938 800.023438 C 713.265625 803.578125 713.886719 803.996094 718.125 806.011719 C 724.828125 809.203125 734.5 810.214844 743.699219 808.695312 C 748.46875 807.90625 756.871094 804.015625 759.84375 801.222656 L 761.875 799.3125 L 761.875 803.367188 C 761.875 805.667969 762.175781 807.613281 762.570312 807.855469 C 763.542969 808.457031 778.90625 809.003906 780.882812 808.507812 L 782.507812 808.097656 L 782.347656 765.144531 L 782.1875 722.1875 L 772.234375 722.015625 C 765.75 721.902344 762.050781 722.078125 761.609375 722.515625 C 761.160156 722.960938 760.832031 731.875 760.625 749.25 C 760.410156 767.058594 760.085938 775.707031 759.601562 776.5625 C 759.207031 777.25 758.363281 778.898438 757.726562 780.222656 C 756.355469 783.0625 750.984375 788.125 749.34375 788.125 C 748.714844 788.125 748.054688 788.359375 747.878906 788.644531 C 747.699219 788.929688 745.640625 789.527344 743.292969 789.96875 C 735.96875 791.351562 728.980469 789.21875 724.789062 784.324219 C 720.445312 779.25 720.40625 778.960938 720.203125 749.699219 C 720.105469 735.265625 719.886719 723.101562 719.71875 722.667969 C 719.488281 722.074219 716.863281 721.875 709.1875 721.875 C 703.5625 721.875 698.769531 722.0625 698.542969 722.292969 M 1015.75 722.625 C 1015.179688 723.195312 1015 733.609375 1015 765.683594 C 1015 803.6875 1015.101562 808.03125 1015.988281 808.371094 C 1017.917969 809.109375 1035.335938 808.789062 1036.125 808 C 1036.691406 807.433594 1036.875 797.148438 1036.875 765.542969 C 1036.875 728.464844 1036.765625 723.730469 1035.894531 722.855469 C 1035.089844 722.054688 1033.242188 721.875 1025.707031 721.875 C 1019.378906 721.875 1016.265625 722.109375 1015.75 722.625 M 1194.792969 722.292969 C 1193.921875 723.160156 1194.515625 724.972656 1199.429688 736.542969 L 1207.277344 755 C 1208.8125 758.609375 1210.605469 762.6875 1211.265625 764.0625 C 1211.921875 765.4375 1212.992188 767.828125 1213.644531 769.375 C 1214.445312 771.257812 1215.269531 773.132812 1216.109375 775 C 1216.8125 776.546875 1218.421875 780.203125 1219.6875 783.125 C 1220.949219 786.046875 1222.382812 789.324219 1222.867188 790.40625 C 1225.394531 796.046875 1229.375 806.519531 1229.375 807.53125 C 1229.375 810.75 1224.890625 817.769531 1221.605469 819.695312 C 1217.898438 821.867188 1212.359375 821.832031 1207.1875 819.605469 C 1200.359375 816.667969 1200.800781 816.46875 1196.726562 824.316406 C 1192.554688 832.34375 1192.609375 833.261719 1197.398438 835.605469 C 1205.105469 839.378906 1214.816406 840.832031 1223.097656 839.449219 C 1229.664062 838.355469 1237.878906 833.285156 1241.070312 828.355469 C 1244.460938 823.117188 1247.5625 817.128906 1250.742188 809.6875 C 1252.800781 804.875 1254.863281 800.09375 1255.324219 799.0625 C 1255.789062 798.03125 1257.191406 794.65625 1258.449219 791.5625 C 1260.890625 785.542969 1261.828125 783.359375 1264.078125 778.4375 C 1264.863281 776.71875 1266.679688 772.359375 1268.117188 768.75 C 1269.550781 765.140625 1271.105469 761.34375 1271.570312 760.3125 C 1273.726562 755.496094 1275.273438 751.910156 1279.417969 742.117188 C 1281.871094 736.3125 1284.417969 730.367188 1285.078125 728.90625 C 1287.246094 724.113281 1287.449219 723.324219 1286.703125 722.578125 C 1286.242188 722.117188 1282.707031 721.875 1276.480469 721.875 L 1266.960938 721.875 L 1265.667969 723.691406 C 1264.957031 724.6875 1264.375 725.785156 1264.375 726.125 C 1264.375 726.464844 1263.507812 728.8125 1262.445312 731.339844 C 1259.53125 738.28125 1256.632812 745.230469 1253.753906 752.1875 C 1252.328125 755.625 1250.789062 759.28125 1250.324219 760.3125 C 1249.863281 761.34375 1248.363281 765 1246.988281 768.4375 C 1243.089844 778.203125 1241.738281 781.25 1241.324219 781.230469 C 1241.109375 781.21875 1238.003906 774.257812 1234.421875 765.761719 C 1230.839844 757.265625 1227.085938 748.484375 1226.082031 746.25 C 1224.453125 742.625 1222.53125 737.835938 1218.652344 727.742188 C 1216.285156 721.585938 1216.941406 721.875 1205.382812 721.875 C 1199.785156 721.875 1195.019531 722.0625 1194.792969 722.292969 M 904.6875 739.792969 C 901.972656 740.21875 897.71875 741.710938 895.757812 742.929688 C 892.996094 744.640625 888.09375 750.121094 886.898438 752.832031 C 882.292969 763.277344 884.359375 776.796875 891.667969 784.003906 C 900.128906 792.34375 913.875 793.234375 923.285156 786.054688 C 928.398438 782.152344 932.5 772.957031 932.5 765.394531 C 932.5 762.261719 931.132812 756.054688 929.792969 753.125 C 927.417969 747.921875 920.515625 741.25 917.503906 741.25 C 916.953125 741.25 916.234375 740.988281 915.90625 740.671875 C 915.203125 739.984375 907.371094 739.371094 904.6875 739.792969 " fill-opacity="1" fill-rule="evenodd"/></svg>