<svg xmlns="http://www.w3.org/2000/svg" xmlns:xlink="http://www.w3.org/1999/xlink" width="144" zoomAndPan="magnify" viewBox="0 0 108 107.999999" height="144" preserveAspectRatio="xMidYMid meet" version="1.0"><path fill="#eeba2b" d="M 69.699219 14.277344 C 69.382812 14.460938 69.367188 16.441406 69.371094 53.351562 C 69.375 74.738281 69.34375 92.269531 69.304688 92.308594 C 69.265625 92.347656 69.121094 92.101562 68.988281 91.761719 C 68.855469 91.421875 68.546875 90.691406 68.300781 90.144531 C 68.058594 89.597656 67.859375 89.101562 67.859375 89.039062 C 67.859375 88.980469 67.613281 88.410156 67.3125 87.773438 C 66.5625 86.175781 64.464844 81.410156 64.464844 81.296875 C 64.464844 81.199219 63.554688 79.058594 62.929688 77.675781 C 62.722656 77.222656 62.382812 76.417969 62.171875 75.886719 C 61.964844 75.355469 61.585938 74.472656 61.335938 73.921875 C 61.085938 73.375 60.878906 72.886719 60.878906 72.839844 C 60.878906 72.792969 60.625 72.199219 60.3125 71.519531 C 60 70.839844 59.746094 70.246094 59.746094 70.199219 C 59.746094 70.15625 59.101562 68.566406 58.308594 66.667969 C 57.515625 64.769531 56.707031 62.792969 56.511719 62.277344 C 56.3125 61.757812 56.074219 61.164062 55.976562 60.953125 C 55.882812 60.746094 55.546875 60 55.234375 59.289062 C 54.769531 58.238281 54.59375 58.015625 54.277344 58.0625 C 53.734375 58.148438 48.238281 63.65625 48.238281 64.113281 C 48.238281 64.316406 48.363281 64.707031 48.511719 64.980469 C 48.664062 65.257812 49.222656 66.542969 49.757812 67.839844 C 50.6875 70.105469 50.925781 70.675781 51.527344 72.042969 C 51.679688 72.382812 52.28125 73.890625 52.871094 75.394531 C 53.460938 76.894531 54.007812 78.207031 54.085938 78.3125 C 54.164062 78.417969 54.332031 78.839844 54.464844 79.253906 C 54.695312 79.988281 56.207031 83.507812 57.316406 85.894531 C 57.617188 86.535156 57.859375 87.109375 57.859375 87.167969 C 57.859375 87.230469 58.039062 87.679688 58.257812 88.171875 C 58.472656 88.664062 58.71875 89.234375 58.800781 89.445312 C 59.261719 90.625 60.617188 93.65625 60.84375 94.019531 L 61.109375 94.441406 L 83.050781 94.441406 C 102.878906 94.441406 104.996094 94.414062 105.101562 94.144531 C 105.328125 93.550781 105.230469 86.417969 104.988281 86.179688 C 104.816406 86.007812 101.523438 85.953125 91.3125 85.953125 L 77.859375 85.953125 L 77.859375 14.304688 L 77.433594 14.191406 C 76.707031 13.996094 70.054688 14.070312 69.699219 14.277344 M 35.921875 14.390625 C 35.871094 14.472656 35.515625 15.347656 35.128906 16.335938 C 34.453125 18.054688 33.6875 19.933594 32.585938 22.5625 C 32.304688 23.234375 31.792969 24.464844 31.453125 25.296875 C 31.113281 26.125 30.683594 27.144531 30.5 27.5625 C 30.320312 27.976562 29.769531 29.292969 29.28125 30.484375 C 28.792969 31.679688 28.28125 32.910156 28.148438 33.222656 C 28.015625 33.53125 27.78125 34.082031 27.625 34.445312 C 27.34375 35.09375 25.933594 38.527344 25.183594 40.390625 C 24.945312 40.972656 24.699219 41.550781 24.445312 42.125 C 24.25 42.558594 24.089844 42.960938 24.089844 43.015625 C 24.089844 43.070312 23.886719 43.5625 23.636719 44.109375 C 23.390625 44.660156 23.054688 45.445312 22.894531 45.863281 C 22.527344 46.800781 21.542969 49.175781 21.1875 49.976562 C 21.039062 50.308594 20.621094 51.300781 20.253906 52.183594 C 18.085938 57.417969 17.644531 58.464844 17.488281 58.753906 C 17.394531 58.925781 17.050781 59.789062 16.722656 60.671875 C 16.394531 61.554688 16.066406 62.359375 15.988281 62.464844 C 15.914062 62.566406 15.652344 63.164062 15.410156 63.785156 C 15.167969 64.40625 14.910156 65 14.835938 65.105469 C 14.757812 65.210938 14.566406 65.675781 14.40625 66.144531 C 14.246094 66.609375 13.71875 67.925781 13.234375 69.066406 C 12.75 70.210938 12.15625 71.652344 11.917969 72.273438 C 11.410156 73.585938 10.042969 76.917969 9.671875 77.746094 C 9.292969 78.59375 8.574219 80.304688 7.488281 82.933594 C 6.953125 84.230469 6.308594 85.742188 6.058594 86.289062 C 5.804688 86.835938 5.601562 87.390625 5.601562 87.523438 C 5.601562 87.65625 5.523438 87.84375 5.433594 87.945312 C 5.34375 88.042969 5.09375 88.589844 4.882812 89.160156 C 4.671875 89.730469 4.15625 91.03125 3.738281 92.046875 C 3.320312 93.0625 3.023438 94.019531 3.082031 94.167969 C 3.171875 94.398438 3.964844 94.441406 7.964844 94.441406 L 12.742188 94.441406 L 13.292969 93.976562 C 13.597656 93.71875 13.917969 93.570312 14 93.648438 C 14.082031 93.722656 14.097656 93.6875 14.03125 93.574219 C 13.921875 93.378906 21.484375 85.792969 38.347656 69.183594 C 41.972656 65.613281 49.777344 57.890625 55.691406 52.015625 L 66.445312 41.339844 L 66.507812 38.507812 C 66.542969 36.949219 66.515625 34.457031 66.441406 32.972656 C 66.320312 30.503906 66.28125 30.28125 65.964844 30.332031 C 65.777344 30.363281 57.617188 38.328125 47.832031 48.03125 C 33.5 62.242188 19.914062 75.695312 19.460938 76.121094 C 19.390625 76.1875 20.519531 73.417969 20.878906 72.652344 C 20.972656 72.445312 21.445312 71.296875 21.929688 70.105469 C 22.410156 68.910156 22.917969 67.679688 23.054688 67.371094 C 23.675781 65.953125 24.84375 63.117188 24.84375 63.019531 C 24.84375 62.960938 25.320312 61.835938 25.90625 60.519531 C 26.488281 59.203125 27.078125 57.804688 27.21875 57.414062 C 27.359375 57.023438 27.589844 56.429688 27.738281 56.09375 C 27.886719 55.757812 28.792969 53.574219 29.753906 51.238281 C 31.828125 46.203125 31.929688 45.960938 32.304688 45.109375 C 32.460938 44.75 32.71875 44.097656 32.871094 43.664062 C 33.023438 43.230469 33.214844 42.785156 33.296875 42.671875 C 33.378906 42.558594 33.558594 42.125 33.699219 41.710938 C 33.839844 41.296875 34.160156 40.488281 34.410156 39.917969 C 34.628906 39.417969 34.847656 38.914062 35.0625 38.410156 C 35.171875 38.148438 35.375 37.683594 35.519531 37.371094 C 35.660156 37.058594 35.875 36.550781 35.992188 36.238281 L 36.210938 35.671875 L 36.550781 36.429688 C 37.25 37.964844 37.652344 38.921875 38.253906 40.484375 C 38.589844 41.367188 38.929688 42.171875 39 42.277344 C 39.074219 42.378906 39.242188 42.804688 39.375 43.214844 C 39.507812 43.628906 39.945312 44.667969 40.34375 45.523438 C 40.742188 46.378906 41.070312 47.167969 41.070312 47.277344 C 41.070312 47.625 42.007812 48.972656 42.253906 48.972656 C 42.5625 48.972656 48.425781 43.097656 48.425781 42.785156 C 48.425781 42.652344 48.257812 42.214844 48.054688 41.816406 C 47.851562 41.414062 47.5625 40.757812 47.414062 40.359375 C 47.269531 39.960938 46.835938 38.914062 46.457031 38.03125 C 46.074219 37.148438 45.503906 35.792969 45.191406 35.011719 C 44.878906 34.234375 44.511719 33.34375 44.371094 33.03125 C 43.789062 31.714844 42.765625 29.332031 42.109375 27.75 C 41.722656 26.816406 41.203125 25.59375 40.953125 25.039062 C 40.707031 24.480469 40.503906 23.953125 40.503906 23.863281 C 40.503906 23.777344 40.296875 23.257812 40.046875 22.707031 C 39.796875 22.160156 39.238281 20.820312 38.800781 19.730469 C 38.367188 18.640625 37.902344 17.496094 37.773438 17.183594 C 37.640625 16.871094 37.328125 16.109375 37.078125 15.488281 C 36.660156 14.460938 36.15625 13.984375 35.921875 14.390625 M 247.296875 34.582031 C 246.277344 34.78125 244.832031 35.996094 244.464844 36.960938 C 244.179688 37.707031 244.214844 39.4375 244.527344 40.183594 C 245.011719 41.347656 246.832031 42.371094 248.414062 42.371094 C 251.269531 42.371094 253.007812 39.898438 252.152344 37.046875 C 251.941406 36.339844 250.996094 35.371094 250.019531 34.867188 C 249.558594 34.632812 247.925781 34.457031 247.296875 34.582031 M 231.546875 36.253906 C 231.484375 36.417969 231.433594 44.4375 231.433594 54.078125 C 231.433594 70.660156 231.453125 71.609375 231.769531 71.78125 C 232.175781 72 237.472656 72.050781 237.800781 71.839844 C 237.984375 71.722656 238.042969 67.84375 238.070312 53.996094 C 238.101562 38.792969 238.070312 36.28125 237.835938 36.132812 C 237.6875 36.039062 236.238281 35.960938 234.613281 35.960938 C 232.09375 35.957031 231.644531 36 231.546875 36.253906 M 125.171875 37.855469 C 124.835938 38.050781 124.648438 38.421875 123.109375 41.984375 C 122.597656 43.171875 121.84375 44.84375 121.4375 45.699219 C 121.035156 46.554688 120.480469 47.789062 120.210938 48.445312 C 119.664062 49.773438 119.613281 49.882812 118.234375 52.9375 C 117.820312 53.847656 117.410156 54.757812 117.003906 55.671875 C 116.867188 55.984375 116.535156 56.730469 116.265625 57.328125 C 116 57.929688 115.78125 58.449219 115.78125 58.488281 C 115.78125 58.527344 115.4375 59.308594 115.015625 60.230469 C 114.707031 60.910156 114.394531 61.59375 114.085938 62.277344 C 113.992188 62.484375 113.664062 63.203125 113.359375 63.878906 C 112.90625 64.882812 112.457031 65.890625 112.011719 66.898438 C 111.578125 67.882812 110.929688 69.320312 110.570312 70.089844 C 110.214844 70.859375 109.988281 71.550781 110.066406 71.625 C 110.148438 71.699219 111.625 71.808594 113.347656 71.871094 C 115.660156 71.949219 116.5625 71.917969 116.789062 71.75 C 117.066406 71.542969 118.804688 67.75 119.765625 65.246094 L 120.148438 64.257812 L 127.539062 64.21875 C 135.949219 64.175781 136.550781 64.195312 136.839844 64.503906 C 136.953125 64.628906 137.324219 65.40625 137.660156 66.238281 C 138 67.066406 138.464844 68.171875 138.699219 68.691406 C 138.929688 69.210938 139.21875 69.929688 139.339844 70.292969 C 139.816406 71.714844 139.988281 71.804688 142.292969 71.835938 C 146.199219 71.886719 147.101562 71.828125 147.101562 71.527344 C 147.101562 71.25 146.765625 70.46875 145.402344 67.558594 C 145.011719 66.726562 144.472656 65.5625 144.203125 64.964844 C 143.828125 64.144531 143.449219 63.328125 143.066406 62.511719 C 142.710938 61.757812 141.78125 59.742188 141.003906 58.03125 C 140.226562 56.316406 139.230469 54.152344 138.796875 53.21875 C 138.363281 52.285156 137.640625 50.671875 137.191406 49.636719 C 136.742188 48.597656 136.167969 47.324219 135.914062 46.804688 C 135.59375 46.148438 135.285156 45.488281 134.976562 44.824219 C 134.621094 44.042969 134.261719 43.265625 133.902344 42.488281 C 133.574219 41.773438 133.164062 40.839844 132.996094 40.414062 C 132.546875 39.292969 131.800781 38.011719 131.558594 37.9375 C 130.957031 37.757812 125.460938 37.6875 125.171875 37.855469 M 182.746094 40.214844 C 182.566406 40.429688 182.511719 41.207031 182.542969 43.136719 L 182.585938 45.765625 L 180.609375 45.765625 C 179.4375 45.765625 178.578125 45.847656 178.507812 45.964844 C 178.378906 46.175781 178.375 50.878906 178.503906 51.011719 C 178.546875 51.054688 179.332031 51.089844 180.246094 51.089844 C 181.160156 51.089844 182.035156 51.125 182.191406 51.164062 C 182.433594 51.222656 182.480469 52.117188 182.523438 57.507812 C 182.589844 65.921875 182.609375 66.132812 183.625 68.355469 C 184.097656 69.390625 185.523438 70.660156 187.003906 71.363281 C 188.261719 71.960938 188.59375 72.03125 190.535156 72.128906 C 193.671875 72.28125 195.765625 71.828125 197.144531 70.695312 C 197.609375 70.3125 197.550781 69.878906 196.75 67.839844 C 195.960938 65.84375 195.890625 65.800781 194.359375 66.398438 C 193.523438 66.722656 191.703125 66.800781 191.023438 66.539062 C 190.394531 66.296875 189.847656 65.769531 189.4375 65.011719 C 189.113281 64.410156 189.078125 63.785156 189.015625 57.863281 C 188.964844 52.796875 189 51.34375 189.1875 51.230469 C 189.316406 51.148438 190.789062 51.121094 192.457031 51.167969 C 194.3125 51.21875 195.601562 51.179688 195.777344 51.0625 C 196.007812 50.910156 196.046875 50.460938 196.003906 48.652344 C 195.972656 47.429688 195.902344 46.28125 195.847656 46.101562 C 195.765625 45.8125 195.386719 45.769531 192.414062 45.722656 L 189.078125 45.671875 L 189.03125 43.21875 C 188.964844 39.558594 189.308594 39.917969 185.890625 39.917969 C 183.492188 39.917969 182.949219 39.96875 182.746094 40.214844 M 284.449219 40.101562 C 284.222656 40.246094 284.152344 40.835938 284.105469 43 L 284.046875 45.71875 L 283.183594 45.835938 C 282.710938 45.902344 281.824219 45.957031 281.214844 45.957031 L 280.109375 45.957031 L 280.109375 48.5 C 280.109375 51.476562 279.96875 51.320312 282.550781 51.207031 L 284.070312 51.140625 L 284.070312 57.59375 C 284.070312 62.597656 284.136719 64.34375 284.355469 65.386719 C 284.722656 67.136719 285.203125 68.597656 285.414062 68.597656 C 285.507812 68.597656 285.582031 68.683594 285.582031 68.792969 C 285.582031 69.257812 287.035156 70.605469 288.25 71.269531 C 290.523438 72.511719 295.277344 72.5 298.082031 71.242188 C 298.804688 70.921875 298.976562 70.75 298.976562 70.371094 C 298.976562 69.75 297.703125 66.097656 297.425781 65.925781 C 297.304688 65.855469 296.863281 65.972656 296.441406 66.195312 C 295.835938 66.511719 295.324219 66.597656 294.003906 66.605469 L 292.332031 66.613281 L 291.617188 65.8125 C 291.152344 65.289062 290.871094 64.765625 290.8125 64.300781 C 290.757812 63.914062 290.707031 60.816406 290.691406 57.417969 L 290.667969 51.238281 L 291.378906 51.210938 C 291.769531 51.195312 292.953125 51.207031 294.007812 51.230469 C 295.0625 51.257812 296.273438 51.21875 296.699219 51.148438 L 297.46875 51.015625 L 297.46875 48.585938 C 297.46875 46.34375 297.4375 46.140625 297.085938 45.953125 C 296.855469 45.828125 295.554688 45.761719 293.738281 45.777344 L 290.769531 45.804688 L 290.71875 43.097656 C 290.675781 40.824219 290.617188 40.351562 290.351562 40.15625 C 289.972656 39.871094 284.890625 39.824219 284.449219 40.101562 M 128.125 45.625 C 127.964844 46.144531 125.378906 52.207031 124.625 53.824219 C 124.328125 54.46875 124.082031 55.046875 124.082031 55.109375 C 124.082031 55.171875 123.921875 55.578125 123.726562 56.011719 C 123.101562 57.390625 122.753906 58.273438 122.816406 58.335938 C 122.976562 58.496094 133.984375 58.417969 134.039062 58.253906 C 134.070312 58.152344 133.789062 57.402344 133.410156 56.589844 C 133.03125 55.773438 132.613281 54.808594 132.480469 54.445312 C 132.347656 54.082031 131.976562 53.210938 131.652344 52.507812 C 131.328125 51.804688 131.0625 51.1875 131.0625 51.136719 C 131.0625 51.085938 130.902344 50.6875 130.703125 50.246094 C 129.742188 48.121094 128.835938 46.007812 128.71875 45.625 C 128.644531 45.390625 128.511719 45.199219 128.421875 45.199219 C 128.332031 45.199219 128.199219 45.390625 128.125 45.625 M 210.019531 45.664062 C 208.457031 45.964844 206.5 46.679688 205.28125 47.394531 C 202.730469 48.886719 200.445312 51.933594 199.351562 55.292969 C 198.988281 56.414062 199.027344 61.242188 199.410156 62.5 C 199.742188 63.582031 200.863281 65.898438 201.488281 66.792969 C 203.964844 70.335938 207.863281 72.195312 212.851562 72.210938 C 216.238281 72.222656 218.714844 71.527344 221.125 69.886719 C 224.25 67.761719 226.050781 64.691406 226.558594 60.636719 C 226.957031 57.472656 226.363281 54.554688 224.78125 51.863281 C 224.035156 50.601562 222.3125 48.613281 221.503906 48.085938 C 220.304688 47.304688 218.859375 46.609375 217.378906 46.101562 C 215.933594 45.605469 215.355469 45.507812 213.511719 45.460938 C 212.230469 45.429688 210.800781 45.511719 210.019531 45.664062 M 265.214844 45.605469 C 262.695312 46.023438 260.375 47.046875 258.9375 48.375 C 258.527344 48.753906 257.882812 49.617188 257.5 50.292969 C 256.8125 51.519531 256.808594 51.527344 256.808594 53.785156 C 256.808594 55.925781 256.839844 56.101562 257.34375 56.992188 C 258.882812 59.703125 260.742188 60.589844 266.996094 61.613281 C 270.285156 62.148438 272.054688 62.800781 272.257812 63.554688 C 272.761719 65.429688 271.75 66.378906 268.882812 66.730469 C 266.097656 67.070312 263.375 66.5625 260.085938 65.089844 C 259.289062 64.734375 258.511719 64.492188 258.355469 64.550781 C 258.199219 64.609375 257.679688 65.480469 257.195312 66.488281 C 256.714844 67.492188 256.230469 68.46875 256.125 68.660156 C 255.871094 69.125 256.328125 69.625 257.566406 70.238281 C 261.792969 72.339844 268.78125 72.863281 273.035156 71.398438 C 275.5 70.550781 277.125 69.230469 278.074219 67.304688 C 278.609375 66.21875 278.703125 65.816406 278.757812 64.332031 C 278.890625 60.828125 277.398438 58.707031 273.878906 57.40625 C 272.707031 56.96875 272.132812 56.84375 267.28125 55.933594 C 264.949219 55.496094 264.382812 55.332031 263.972656 54.964844 C 263.828125 54.835938 263.578125 54.621094 263.417969 54.484375 C 263.25 54.34375 263.128906 53.9375 263.128906 53.507812 C 263.128906 52.089844 264.363281 51.222656 266.894531 50.863281 C 268.335938 50.660156 270.933594 50.898438 271.898438 51.324219 C 272.867188 51.753906 275.363281 52.746094 275.464844 52.746094 C 275.792969 52.746094 277.65625 48.707031 277.65625 47.996094 C 277.65625 47.625 276.039062 46.777344 274.261719 46.21875 C 271.90625 45.480469 267.6875 45.195312 265.214844 45.605469 M 149.488281 45.894531 C 149.269531 46.113281 149.347656 61.339844 149.574219 62.804688 C 149.992188 65.496094 151.210938 68.042969 152.710938 69.359375 C 153.933594 70.429688 154.121094 70.558594 155.402344 71.164062 C 157.425781 72.128906 160.34375 72.433594 163.121094 71.976562 C 164.5625 71.738281 167.097656 70.5625 167.996094 69.71875 L 168.609375 69.144531 L 168.609375 70.367188 C 168.609375 71.0625 168.699219 71.648438 168.816406 71.722656 C 169.109375 71.902344 173.75 72.066406 174.347656 71.917969 L 174.835938 71.796875 L 174.789062 58.828125 L 174.738281 45.863281 L 171.734375 45.808594 C 169.777344 45.777344 168.660156 45.828125 168.527344 45.960938 C 168.394531 46.09375 168.292969 48.785156 168.230469 54.03125 C 168.167969 59.40625 168.066406 62.019531 167.921875 62.277344 C 167.804688 62.484375 167.546875 62.980469 167.355469 63.378906 C 166.941406 64.238281 165.320312 65.765625 164.824219 65.765625 C 164.636719 65.765625 164.4375 65.835938 164.382812 65.921875 C 164.328125 66.007812 163.707031 66.1875 163 66.324219 C 160.789062 66.738281 158.679688 66.097656 157.414062 64.617188 C 156.101562 63.085938 156.089844 63 156.027344 54.167969 C 156 49.808594 155.933594 46.136719 155.882812 46.007812 C 155.8125 45.828125 155.019531 45.765625 152.703125 45.765625 C 151.003906 45.765625 149.558594 45.824219 149.488281 45.894531 M 245.246094 45.992188 C 245.074219 46.164062 245.019531 49.308594 245.019531 58.992188 C 245.019531 70.464844 245.046875 71.773438 245.316406 71.878906 C 245.898438 72.101562 251.15625 72.003906 251.394531 71.765625 C 251.566406 71.59375 251.621094 68.488281 251.621094 58.949219 C 251.621094 47.757812 251.589844 46.328125 251.324219 46.0625 C 251.082031 45.820312 250.523438 45.765625 248.25 45.765625 C 246.339844 45.765625 245.398438 45.839844 245.246094 45.992188 M 299.292969 45.894531 C 299.03125 46.15625 299.207031 46.703125 300.691406 50.195312 L 303.0625 55.765625 C 303.523438 56.855469 304.066406 58.085938 304.265625 58.503906 C 304.460938 58.917969 304.785156 59.640625 304.984375 60.105469 C 305.226562 60.675781 305.472656 61.242188 305.726562 61.804688 C 305.9375 62.269531 306.425781 63.375 306.804688 64.257812 C 307.1875 65.136719 307.621094 66.128906 307.765625 66.453125 C 308.53125 68.15625 309.730469 71.320312 309.730469 71.625 C 309.730469 72.597656 308.378906 74.714844 307.386719 75.296875 C 306.265625 75.953125 304.59375 75.941406 303.035156 75.269531 C 300.972656 74.382812 301.105469 74.320312 299.875 76.691406 C 298.617188 79.113281 298.632812 79.390625 300.078125 80.097656 C 302.40625 81.238281 305.335938 81.675781 307.835938 81.257812 C 309.816406 80.929688 312.296875 79.398438 313.261719 77.910156 C 314.285156 76.328125 315.222656 74.519531 316.179688 72.273438 C 316.800781 70.820312 317.425781 69.378906 317.5625 69.066406 C 317.703125 68.757812 318.128906 67.738281 318.507812 66.804688 C 319.246094 64.988281 319.527344 64.328125 320.207031 62.839844 C 320.441406 62.324219 320.992188 61.007812 321.425781 59.917969 C 321.859375 58.828125 322.328125 57.679688 322.46875 57.371094 C 323.121094 55.917969 323.585938 54.832031 324.835938 51.878906 C 325.578125 50.125 326.347656 48.332031 326.546875 47.890625 C 327.199219 46.441406 327.261719 46.207031 327.035156 45.980469 C 326.898438 45.839844 325.832031 45.765625 323.949219 45.765625 L 321.078125 45.765625 L 320.6875 46.316406 C 320.472656 46.617188 320.296875 46.949219 320.296875 47.050781 C 320.296875 47.152344 320.035156 47.863281 319.714844 48.625 C 318.835938 50.71875 317.960938 52.816406 317.089844 54.917969 C 316.660156 55.957031 316.195312 57.058594 316.054688 57.371094 C 315.914062 57.679688 315.460938 58.785156 315.046875 59.824219 C 313.871094 62.769531 313.464844 63.691406 313.335938 63.683594 C 313.273438 63.679688 312.335938 61.582031 311.253906 59.015625 C 310.171875 56.449219 309.039062 53.800781 308.738281 53.125 C 308.246094 52.03125 307.664062 50.585938 306.492188 47.539062 C 305.78125 45.679688 305.976562 45.765625 302.488281 45.765625 C 300.800781 45.765625 299.359375 45.824219 299.292969 45.894531 M 211.71875 51.175781 C 210.898438 51.304688 209.613281 51.753906 209.023438 52.121094 C 208.1875 52.640625 206.710938 54.292969 206.347656 55.113281 C 204.957031 58.265625 205.582031 62.347656 207.789062 64.523438 C 210.34375 67.039062 214.492188 67.308594 217.332031 65.140625 C 218.875 63.964844 220.113281 61.1875 220.113281 58.90625 C 220.113281 57.957031 219.699219 56.085938 219.296875 55.199219 C 218.582031 53.628906 216.496094 51.617188 215.585938 51.617188 C 215.421875 51.617188 215.203125 51.539062 215.105469 51.441406 C 214.894531 51.234375 212.527344 51.046875 211.71875 51.175781 " fill-opacity="1" fill-rule="evenodd"/></svg>